<?xml version="1.0" encoding="UTF-8" standalone="no"?>
<svg
   xmlns:dc="http://purl.org/dc/elements/1.1/"
   xmlns:cc="http://creativecommons.org/ns#"
   xmlns:rdf="http://www.w3.org/1999/02/22-rdf-syntax-ns#"
   xmlns:svg="http://www.w3.org/2000/svg"
   xmlns="http://www.w3.org/2000/svg"
   xmlns:sodipodi="http://sodipodi.sourceforge.net/DTD/sodipodi-0.dtd"
   xmlns:inkscape="http://www.inkscape.org/namespaces/inkscape"
   version="1.1"
   id="svg833"
   width="50"
   height="50"
   viewBox="0 0 50 50"
   sodipodi:docname="background.svg"
   inkscape:version="1.0beta2 (2b71d25, 2019-12-03)">
  <metadata
     id="metadata839">
    <rdf:RDF>
      <cc:Work
         rdf:about="">
        <dc:format>image/svg+xml</dc:format>
        <dc:type
           rdf:resource="http://purl.org/dc/dcmitype/StillImage" />
        <dc:title></dc:title>
      </cc:Work>
    </rdf:RDF>
  </metadata>
  <defs
     id="defs837" />
  <sodipodi:namedview
     pagecolor="#ffffff"
     bordercolor="#666666"
     inkscape:document-rotation="0"
     borderopacity="1"
     objecttolerance="10"
     gridtolerance="10"
     guidetolerance="10"
     inkscape:pageopacity="0"
     inkscape:pageshadow="2"
     inkscape:window-width="1920"
     inkscape:window-height="1035"
     id="namedview835"
     showgrid="false"
     inkscape:zoom="16.54"
     inkscape:cx="24.976549"
     inkscape:cy="25"
     inkscape:window-x="0"
     inkscape:window-y="23"
     inkscape:window-maximized="1"
     inkscape:current-layer="layer1">
    <inkscape:grid
       type="xygrid"
       id="grid886" />
  </sodipodi:namedview>
  <g
     inkscape:groupmode="layer"
     id="layer1"
     inkscape:label="drawing">
    <g
       id="g982">
      <g
         id="g914">
        <path
           d="M 0,0 V 50 L 22.701172,49.998 H 24.9375 L 50,50 V 0 H 24.9375 22.701172 Z"
           style="fill:#ddd2bc;fill-opacity:1;stroke:none;stroke-width:0.245683;stroke-opacity:1"
           id="path950"
           inkscape:connector-curvature="0"
           sodipodi:nodetypes="ccccccccc" />
        <path
           sodipodi:nodetypes="cccsscccscccscccssscccscscc"
           inkscape:connector-curvature="0"
           d="m 0,0 -0.046875,8.5488281 c 0,0 -0.01833738,5.5943509 0.89453125,7.7050779 1.60912655,3.720598 4.56027755,6.247952 4.54101565,8.453125 -0.02005,2.295497 -2.9660935,4.833504 -4.155492,7.404982 C -0.12252972,35.043052 0,37.84375 0,37.84375 V 50 l 18.982422,-0.002 c 0,0 0.975847,-3.674284 2.330078,-5.585938 3.524433,-4.975143 3.347656,-9.697265 3.347656,-9.697265 L 24.9375,18.292969 25.214844,34.714844 c 0,0 -0.174824,4.722122 3.349609,9.697265 1.354231,1.911654 2.330078,5.585938 2.330078,5.585938 L 50,50 49.923828,37.84375 c 0,0 0.22485,-2.664664 -1.130859,-5.595703 -1.189399,-2.571478 -4.286591,-5.245519 -4.306641,-7.541016 -0.01926,-2.205173 2.933842,-4.732527 4.542969,-8.453125 0.912871,-2.110727 0.894531,-7.7050779 0.894531,-7.7050779 L 50,0 H 30.894531 c 0,0 -0.563954,2.6837142 -3.787109,6.7753906 C 25.535506,8.7708813 25.061387,12.350312 24.9375,14.992188 24.813612,12.350312 24.341447,8.7708813 22.769531,6.7753906 19.546376,2.6837142 18.982422,0 18.982422,0 Z"
           style="fill:#bbab94;fill-opacity:1;stroke:none;stroke-width:0.236504;stroke-opacity:1"
           id="path890" />
        <path
           sodipodi:nodetypes="ccsssscccssccscccsssccccssccscc"
           inkscape:connector-curvature="0"
           d="m 0,0 -0.046875,6.4179688 c 0.13619584,2.2017705 0.45641687,4.4028852 1.1640625,5.5703122 2.667469,4.400607 5.5253326,6.656639 8.4472656,9.591797 1.2017479,1.207188 2.6783869,3.924635 -0.3886719,6.359375 C 3.7124039,32.276479 1.5465092,35.792687 0.53515625,37.84375 0.24515876,38.431876 0.11076898,39.482417 0,40.706521 V 50 h 13.576172 c 0,0 0.119383,-2.096005 1.460937,-3.607469 1.870103,-2.106951 8.283971,-4.565494 9.285157,-11.15625 0.289512,-1.905837 0.488757,-3.687531 0.615234,-5.441406 0.126476,1.753875 0.327674,3.535569 0.617188,5.441406 1.001185,6.590756 7.413101,9.049299 9.283203,11.15625 C 36.179445,47.903995 36.294922,50 36.294922,50 H 50 l -0.07617,-9.308641 c -0.110769,-1.224104 -0.292034,-2.25953 -0.582031,-2.847656 -1.011353,-2.051063 -3.177248,-5.567271 -8.640625,-9.904297 -3.067059,-2.43474 -1.59042,-5.152187 -0.388672,-6.359375 2.921933,-2.935158 5.779797,-5.19119 8.447266,-9.591797 0.707645,-1.167427 1.027866,-3.3685417 1.164062,-5.5703122 L 50,0 H 36.294922 c 0,0 0.49385,1.8046034 -3.652344,5.2128906 C 30.73729,6.7790903 25.718651,10.230659 25.261719,15.533203 25.127458,17.091273 25.01903,18.542564 24.9375,19.927734 24.85597,18.542564 24.747542,17.091273 24.613281,15.533203 24.156348,10.230659 19.139662,6.7790903 17.234375,5.2128906 13.08818,1.8046034 13.580078,0 13.580078,0 Z"
           style="fill:#040308;fill-opacity:1;stroke:none;stroke-width:0.235372px;stroke-linecap:butt;stroke-linejoin:miter;stroke-opacity:1"
           id="path892" />
        <path
           sodipodi:nodetypes="ccssssccccscsscccsssscccsscsscc"
           inkscape:connector-curvature="0"
           d="m 0,0 v 1.9550781 c 0.0611575,2.0360994 0.29599723,5.1749218 1.4082031,7.0097657 2.667469,4.4006072 7.2910672,6.8454552 10.1953129,9.8007812 3.337788,3.396495 5.494977,7.364749 0.777343,11.363281 C 7.0477907,34.649059 6.9618182,33.591862 1.5058594,40.242188 0.56936858,41.383686 0.18564968,43.261508 0,45 v 5 l 9.7011719,-0.002 c 0,0 0.6732351,-3.678221 2.0147891,-5.189686 1.870103,-2.106951 3.997684,-3.786037 9.014508,-8.111095 2.14548,-1.849644 4.046369,-6.440195 4.207031,-11.40625 0.160662,4.966055 2.063504,9.556606 4.208984,11.40625 5.016824,4.325058 7.277764,6.41008 9.147866,8.517031 1.341554,1.511465 1.879478,4.78375 1.879478,4.78375 L 50,50 49.923828,44.912062 C 49.738179,43.17357 49.307585,41.38364 48.371094,40.242141 42.915135,33.591815 42.829163,34.649012 37.496094,30.128859 32.77846,26.130327 34.935649,22.162073 38.273438,18.765578 41.177683,15.810252 45.799328,13.365404 48.466797,8.9647968 49.579003,7.1299529 49.862668,3.9911305 49.923828,1.9550311 L 50,0 h -9.826172 c 0,0 -0.03058,3.0717111 -2.095703,5.2128906 -3.446948,3.5738902 -5.98344,4.8564554 -9.320313,8.5488284 C 26.14092,16.657405 25.05552,20.344167 24.9375,23.947266 24.81948,20.344167 23.736034,16.657405 21.119141,13.761719 17.782268,10.069346 15.243822,8.7867808 11.796875,5.2128906 9.7317514,3.0717111 9.7011719,0 9.7011719,0 Z"
           style="fill:#3c3b33;fill-opacity:1;stroke:none;stroke-width:0.235372px;stroke-linecap:butt;stroke-linejoin:miter;stroke-opacity:1"
           id="path894" />
        <path
           sodipodi:nodetypes="csssscccsssscccsssscccsssscc"
           inkscape:connector-curvature="0"
           d="m 0,0 c 0,0 0.15540034,4.6367578 1.8945312,7.5058594 2.6674691,4.4006066 7.9707551,6.7399866 10.8749998,9.6953126 3.337789,3.396495 6.950544,9.451129 0.970703,14.492187 C 8.3961428,36.198476 7.1551776,35.154363 1.6992188,41.804688 0.53664527,43.221759 0.14710767,45.313584 0,47 v 3 l 7.9023438,-0.002 c 0,0 -0.02287,-3.869338 2.4837962,-6.736089 1.855379,-2.121904 5.036489,-4.325572 10.053313,-8.65063 3.879432,-3.344501 7.360735,-12.520671 0.0957,-19.390625 C 16.939201,11.820299 13.011401,8.9957652 9.5644531,5.421875 7.4993302,3.2806955 7.9023438,0 7.9023438,0 Z m 41.974609,0 c 0,0 0.403014,3.2806955 -1.662109,5.421875 -3.446947,3.5738902 -7.376701,6.398424 -10.972656,9.798828 -7.265032,6.869954 -3.781776,16.046124 0.09766,19.390625 5.016824,4.325058 8.128324,6.957213 9.983704,9.079117 2.506666,2.866751 2.553401,6.307602 2.553401,6.307602 L 50,50 49.923832,46.941406 C 49.776721,45.25499 49.338355,43.221759 48.175781,41.804688 42.719822,35.154363 41.480811,36.198476 36.136719,31.693359 30.156878,26.652301 33.769633,20.597667 37.107422,17.201172 40.011667,14.245846 45.314953,11.906466 47.982422,7.5058594 49.721553,4.6367578 50,0 50,0 Z"
           style="fill:#c0b199;fill-opacity:1;stroke:none;stroke-width:0.235372px;stroke-linecap:butt;stroke-linejoin:miter;stroke-opacity:1"
           id="path896" />
      </g>
    </g>
  </g>
</svg>
