<?xml version="1.0" encoding="UTF-8" standalone="no"?>
<svg
   xmlns:osb="http://www.openswatchbook.org/uri/2009/osb"
   xmlns:dc="http://purl.org/dc/elements/1.1/"
   xmlns:cc="http://creativecommons.org/ns#"
   xmlns:rdf="http://www.w3.org/1999/02/22-rdf-syntax-ns#"
   xmlns:svg="http://www.w3.org/2000/svg"
   xmlns="http://www.w3.org/2000/svg"
   xmlns:xlink="http://www.w3.org/1999/xlink"
   xmlns:sodipodi="http://sodipodi.sourceforge.net/DTD/sodipodi-0.dtd"
   xmlns:inkscape="http://www.inkscape.org/namespaces/inkscape"
   sodipodi:docname="logo.svg"
   inkscape:version="1.0beta2 (2b71d25, 2019-12-03)"
   id="svg8"
   version="1.1"
   viewBox="0 0 79.374999 79.374999"
   height="300"
   width="300">
  <defs
     id="defs2">
    <linearGradient
       x1="0"
       y1="0"
       x2="1"
       y2="0"
       gradientUnits="userSpaceOnUse"
       gradientTransform="matrix(3055.92,0,0,-3055.92,2229.46,2534.72)"
       spreadMethod="pad"
       id="linearGradient5760">
      <stop
         style="stop-opacity:1;stop-color:#381c08"
         offset="0"
         id="stop5754" />
      <stop
         style="stop-opacity:1;stop-color:#9d6d4e"
         offset="0.41012824"
         id="stop5756" />
      <stop
         style="stop-opacity:1;stop-color:#886547"
         offset="1"
         id="stop5758" />
    </linearGradient>
    <linearGradient
       inkscape:collect="always"
       id="linearGradient5742">
      <stop
         style="stop-color:#d3d4d4;stop-opacity:1;"
         offset="0"
         id="stop5738" />
      <stop
         style="stop-color:#ffffff;stop-opacity:1"
         offset="1"
         id="stop5740" />
    </linearGradient>
    <linearGradient
       id="linearGradient5721-8"
       osb:paint="gradient">
      <stop
         style="stop-color:#abafaf;stop-opacity:1;"
         offset="0"
         id="stop5717" />
      <stop
         style="stop-color:#ffffff;stop-opacity:1"
         offset="1"
         id="stop5719" />
    </linearGradient>
    <linearGradient
       id="linearGradient3558"
       spreadMethod="pad"
       gradientTransform="matrix(-28.8778,-270.27,-270.27,28.8778,3223.9,1259.01)"
       gradientUnits="userSpaceOnUse"
       y2="0"
       x2="1"
       y1="0"
       x1="0">
      <stop
         id="stop3560"
         offset="0"
         style="stop-opacity:1;stop-color:#ffffff" />
      <stop
         id="stop3562"
         offset="0.17228352"
         style="stop-opacity:1;stop-color:#ffffff" />
      <stop
         id="stop3564"
         offset="1"
         style="stop-opacity:1;stop-color:#5d6060" />
    </linearGradient>
    <clipPath
       id="clipPath4066"
       clipPathUnits="userSpaceOnUse">
      <path
         style="clip-rule:evenodd"
         id="path4068"
         d="m 4897.62,2159.27 32.94,5.13 1.98,-73.98 -22.59,-8.28 -12.33,77.13"
         inkscape:connector-curvature="0" />
    </clipPath>
    <radialGradient
       inkscape:collect="always"
       r="492.16"
       gradientTransform="matrix(1.3393,-2.0319e-8,2.4329e-8,1.6036,-247.7,-330.4)"
       cx="730"
       cy="547.35999"
       gradientUnits="userSpaceOnUse"
       id="radialGradient10921">
      <stop
         offset="0"
         style="stop-color:#abafaf"
         id="stop10917" />
      <stop
         offset=".69442"
         style="stop-color:#abafaf"
         id="stop10927" />
      <stop
         offset=".81073"
         style="stop-color:#000000"
         id="stop10925" />
      <stop
         offset="1"
         style="stop-color:#000000"
         id="stop10919" />
    </radialGradient>
    <filter
       inkscape:label="Film grain"
       inkscape:menu-tooltip="Adds a small scale graininess"
       x="0"
       y="0"
       color-interpolation-filters="sRGB"
       width="1"
       height="1"
       inkscape:menu="Image effects"
       id="filter7051-0">
      <feTurbulence
         type="fractalNoise"
         numOctaves="3"
         result="result0"
         seed="0"
         baseFrequency="1"
         id="feTurbulence7053-3" />
      <feColorMatrix
         result="result4"
         values="0"
         type="saturate"
         id="feColorMatrix7055-2" />
      <feComposite
         operator="arithmetic"
         in="SourceGraphic"
         result="result2"
         k1="1.25"
         k2="0.5"
         k3="0.5"
         in2="result4"
         k4="0"
         id="feComposite7057-6" />
      <feBlend
         result="result5"
         in2="SourceGraphic"
         in="result2"
         mode="normal"
         id="feBlend7059-9" />
      <feComposite
         in="result5"
         in2="SourceGraphic"
         result="result3"
         operator="in"
         id="feComposite7061-4" />
    </filter>
    <radialGradient
       inkscape:collect="always"
       xlink:href="#linearGradient3558"
       id="radialGradient3825"
       gradientUnits="userSpaceOnUse"
       gradientTransform="matrix(0.03612848,-0.02498381,-0.01998952,-0.02911569,-74.866978,210.84427)"
       cx="5015.6553"
       cy="1942.6515"
       fx="5015.6553"
       fy="1942.6515"
       r="84.803085" />
    <linearGradient
       gradientTransform="matrix(0.84208548,0,0,0.84208548,-188.3472,-69.449473)"
       inkscape:collect="always"
       xlink:href="#linearGradient5760"
       id="linearGradient4708"
       x1="276.67807"
       y1="105.93566"
       x2="278.22147"
       y2="174.94478"
       gradientUnits="userSpaceOnUse" />
    <radialGradient
       inkscape:collect="always"
       xlink:href="#linearGradient5742"
       id="radialGradient5744"
       cx="304.39279"
       cy="117.04853"
       fx="304.39279"
       fy="117.04853"
       r="5.4627452"
       gradientTransform="matrix(1.2795859,-0.05272296,0.0547261,1.3282021,-327.92482,-110.3002)"
       gradientUnits="userSpaceOnUse" />
    <radialGradient
       inkscape:collect="always"
       xlink:href="#linearGradient5721-8"
       id="radialGradient5748"
       gradientUnits="userSpaceOnUse"
       gradientTransform="matrix(1.5902823,-0.02195134,0.01075907,0.77944907,-386.68717,-55.164533)"
       cx="263.13721"
       cy="135.84338"
       fx="263.13721"
       fy="135.84338"
       r="30.666853" />
    <radialGradient
       inkscape:collect="always"
       xlink:href="#linearGradient5742"
       id="radialGradient5752"
       gradientUnits="userSpaceOnUse"
       gradientTransform="matrix(1.2795859,-0.05272296,0.0547261,1.3282021,-328.40273,-95.598799)"
       cx="304.39279"
       cy="117.04853"
       fx="304.39279"
       fy="117.04853"
       r="5.4627452" />
    <radialGradient
       r="492.16"
       cy="547.35999"
       cx="730"
       gradientTransform="matrix(1.3393,-2.0319e-8,2.4329e-8,1.6036,-247.7,-330.4)"
       gradientUnits="userSpaceOnUse"
       id="radialGradient3590"
       xlink:href="#radialGradient10921"
       inkscape:collect="always" />
    <radialGradient
       r="84.803085"
       fy="1942.6515"
       fx="5015.6553"
       cy="1942.6515"
       cx="5015.6553"
       gradientTransform="matrix(0.03646129,-0.02723878,-0.02228834,-0.03025851,-72.140886,239.37973)"
       gradientUnits="userSpaceOnUse"
       id="radialGradient3676"
       xlink:href="#linearGradient3558"
       inkscape:collect="always" />
  </defs>
  <sodipodi:namedview
     inkscape:window-maximized="1"
     inkscape:window-y="23"
     inkscape:window-x="0"
     inkscape:window-height="1035"
     inkscape:window-width="1920"
     inkscape:snap-global="false"
     showgrid="false"
     inkscape:document-rotation="0"
     inkscape:current-layer="layer1"
     inkscape:document-units="mm"
     inkscape:cy="212.73413"
     inkscape:cx="149.60849"
     inkscape:zoom="2.5189246"
     inkscape:pageshadow="2"
     inkscape:pageopacity="0.0"
     borderopacity="1.0"
     bordercolor="#666666"
     pagecolor="#ffffff"
     id="base"
     units="px" />
  <metadata
     id="metadata5">
    <rdf:RDF>
      <cc:Work
         rdf:about="">
        <dc:format>image/svg+xml</dc:format>
        <dc:type
           rdf:resource="http://purl.org/dc/dcmitype/StillImage" />
        <dc:title />
      </cc:Work>
    </rdf:RDF>
  </metadata>
  <g
     id="layer1"
     inkscape:groupmode="layer"
     inkscape:label="Layer 1">
    <path
       style="fill:url(#linearGradient4708);fill-opacity:1;stroke:#000000;stroke-width:0.222801px;stroke-linecap:butt;stroke-linejoin:miter;stroke-opacity:1"
       d="m 3.4105182,20.829787 68.1094148,-0.914227 3.199773,0.914227 1.599887,7.542316 -1.828446,38.854363 -4.113992,1.828445 L 5.0104048,69.51202 2.0391904,65.16947 1.3535223,24.71522 Z"
       id="path3863"
       inkscape:connector-curvature="0" />
    <path
       style="fill:url(#radialGradient5748);fill-opacity:1;stroke:#000000;stroke-width:0.222801px;stroke-linecap:butt;stroke-linejoin:miter;stroke-opacity:1"
       d="m 9.8100563,26.086548 12.3419757,-0.457109 31.312047,2.056995 3.656883,2.742664 1.828437,16.455968 -0.228551,10.742088 -1.371328,4.79966 -2.285554,1.828437 H 17.809489 L 9.5815058,61.284037 7.9816192,50.313389 7.52451,39.571301 Z"
       id="path3865"
       inkscape:connector-curvature="0" />
    <path
       id="path3588"
       style="opacity:0.5;fill:url(#radialGradient3590);filter:url(#filter7051-0)"
       d="m 300.7,207.72 c 151.60915,-16.30684 280.20825,-10.31054 411.20343,-15.43325 123.12533,-4.81496 211.17692,0.8015 346.29377,16.84914 22.005,2.6135 76.399,23.90381 80.06,45.75981 33.98,202.86 41.0149,325.30123 18.3389,520.61123 -2.5556,22.012 -51.6837,92.42599 -73.7266,94.7662 C 775.43609,902.91234 602.571,883.23536 335.90213,859.5952 313.82044,857.63766 275.71078,848.8381 272.46378,826.9171 243.62078,632.1871 228.626,450.06 260.7,247.72 c 3.4694,-21.887 17.96698,-37.63016 40,-40 z"
       sodipodi:nodetypes="ssssssssss"
       inkscape:connector-curvature="0"
       transform="matrix(0.05430861,0,0,0.05659877,-4.8601338,15.387944)" />
    <g
       style="font-style:normal;font-variant:normal;font-weight:bold;font-stretch:condensed;font-size:13.2306px;line-height:1.25;font-family:'American Typewriter';-inkscape-font-specification:'American Typewriter Bold Condensed';font-variant-ligatures:normal;font-variant-caps:normal;font-variant-numeric:normal;font-variant-east-asian:normal;fill:#000000;fill-opacity:1;stroke:none;stroke-width:0.330762"
       id="text3849"
       aria-label="The Old">
      <path
         id="path908"
         style="font-style:normal;font-variant:normal;font-weight:normal;font-stretch:normal;font-size:13.2306px;font-family:Lobster;-inkscape-font-specification:'Lobster Normal';font-variant-ligatures:normal;font-variant-caps:normal;font-variant-numeric:normal;font-variant-east-asian:normal;fill:#000000;stroke-width:0.330762"
         d="m 24.031196,41.475166 q -0.807066,0 -1.190754,-0.423379 -0.370456,-0.43661 -0.370456,-1.071679 0,-0.277842 0.06615,-0.621838 0.06615,-0.357226 0.132306,-0.687991 0.07938,-0.330765 0.105844,-0.423379 0.105845,-0.463071 0.198459,-0.912912 0.09262,-0.44984 0.09262,-0.727683 0,-0.67476 -0.476302,-0.67476 -0.330765,0 -0.595377,0.317534 -0.251381,0.317534 -0.410149,0.820297 -0.396918,2.077204 -0.807066,4.326406 h -1.905207 l 1.812593,-8.441123 q -0.463071,-0.03969 -1.74644,-0.22492 l -1.865514,8.666043 h -1.905207 l 1.891976,-8.785118 q -1.256907,0.05292 -1.958129,0.648299 -0.701222,0.595377 -0.701222,2.050743 0,0.489533 0.09262,0.687992 0.09261,0.185228 0.09261,0.211689 -0.714453,0 -1.071679,-0.291073 -0.343995,-0.304304 -0.343995,-0.992295 0,-0.926142 0.502762,-1.706748 0.502763,-0.780605 1.547981,-1.256907 1.045217,-0.476301 2.606428,-0.476301 0.264612,0 1.124601,0.119075 1.574441,0.22492 2.447661,0.22492 1.137832,0 1.600903,-0.317534 -0.198459,0.370457 -0.330765,0.701222 -0.119076,0.330765 -0.304304,1.084909 -0.185229,0.740914 -0.476302,2.19628 0.674761,-0.767375 1.574442,-0.767375 0.67476,0 1.071678,0.370457 0.396918,0.370457 0.396918,1.124601 0,0.383687 -0.09261,0.859989 -0.09261,0.463071 -0.264612,1.137831 -0.105845,0.410149 -0.198459,0.807067 -0.07938,0.383687 -0.07938,0.608608 0,0.264612 0.119076,0.410148 0.119075,0.145537 0.410148,0.145537 0.396918,0 0.635069,-0.277843 0.238151,-0.291073 0.476302,-0.88645 h 0.555685 q -0.489532,1.455366 -1.137832,1.958129 -0.635068,0.489532 -1.32306,0.489532 z" />
      <path
         id="path910"
         style="font-style:normal;font-variant:normal;font-weight:normal;font-stretch:normal;font-size:13.2306px;font-family:Lobster;-inkscape-font-specification:'Lobster Normal';font-variant-ligatures:normal;font-variant-caps:normal;font-variant-numeric:normal;font-variant-east-asian:normal;fill:#000000;stroke-width:0.330762"
         d="m 27.79799,41.475166 q -0.965834,0 -1.508289,-0.502763 -0.542454,-0.515993 -0.542454,-1.600902 0,-0.912912 0.357226,-2.011052 0.357226,-1.098139 1.164293,-1.891975 0.807066,-0.807067 2.050743,-0.807067 1.455366,0 1.455366,1.270138 0,0.740913 -0.423379,1.362751 -0.42338,0.621839 -1.124601,1.005526 -0.701222,0.370457 -1.495058,0.423379 -0.02646,0.291073 -0.02646,0.396918 0,1.09814 0.820297,1.09814 0.370457,0 0.793836,-0.198459 0.423379,-0.198459 0.767375,-0.502763 -0.357227,1.958129 -2.288894,1.958129 z m 0.02646,-3.387034 q 0.502763,-0.01323 0.939373,-0.330765 0.44984,-0.317534 0.714452,-0.807066 0.277843,-0.502763 0.277843,-1.045218 0,-0.542454 -0.330765,-0.542454 -0.463071,0 -0.926142,0.846758 -0.449841,0.833528 -0.674761,1.878745 z" />
      <path
         id="path912"
         style="font-style:normal;font-variant:normal;font-weight:normal;font-stretch:normal;font-size:13.2306px;font-family:Lobster;-inkscape-font-specification:'Lobster Normal';font-variant-ligatures:normal;font-variant-caps:normal;font-variant-numeric:normal;font-variant-east-asian:normal;fill:#000000;stroke-width:0.330762"
         d="m 37.43028,41.475166 q -1.11137,0 -1.746439,-0.635069 -0.621839,-0.635069 -0.621839,-2.024282 0,-1.177523 0.42338,-2.64612 0.423379,-1.468596 1.230446,-2.513814 0.820297,-1.045217 1.931667,-1.045217 0.396918,0 0.687991,0.105845 -0.582146,0.343995 -1.124601,1.415674 -0.529224,1.071679 -0.859989,2.394739 -0.330765,1.32306 -0.330765,2.341816 0,0.714452 0.185229,1.124601 0.185228,0.410148 0.582146,0.410148 0.6483,0 1.283368,-0.926142 0.6483,-0.939372 1.058448,-2.355046 0.42338,-1.415675 0.42338,-2.725504 0,-0.820297 -0.145537,-1.30983 -0.132306,-0.502762 -0.502763,-0.754144 -0.370457,-0.251381 -1.045217,-0.251381 -1.018756,0 -1.891976,0.423379 -0.87322,0.410149 -1.402444,1.190754 -0.515993,0.767375 -0.515993,1.786131 0,0.357226 0.06615,0.529224 0.06615,0.158767 0.06615,0.185229 -0.66153,0 -1.005526,-0.264612 -0.330765,-0.264612 -0.330765,-0.846759 0,-0.912911 0.740914,-1.746439 0.754144,-0.833528 1.98459,-1.349521 1.243676,-0.515994 2.606428,-0.515994 1.653825,0 2.394739,0.899681 0.740913,0.899681 0.740913,2.487353 0,1.415674 -0.529224,2.950424 -0.529224,1.534749 -1.640594,2.606428 -1.09814,1.058448 -2.712273,1.058448 z" />
      <path
         id="path914"
         style="font-style:normal;font-variant:normal;font-weight:normal;font-stretch:normal;font-size:13.2306px;font-family:Lobster;-inkscape-font-specification:'Lobster Normal';font-variant-ligatures:normal;font-variant-caps:normal;font-variant-numeric:normal;font-variant-east-asian:normal;fill:#000000;stroke-width:0.330762"
         d="m 43.728873,41.475166 q -0.635069,0 -1.031987,-0.396918 -0.383687,-0.396918 -0.383687,-1.190754 0,-0.330765 0.105845,-0.859989 l 1.415674,-6.628531 1.958129,-0.264612 -1.521519,7.144524 q -0.05292,0.198459 -0.05292,0.42338 0,0.264612 0.119076,0.383687 0.132306,0.105845 0.423379,0.105845 0.383687,0 0.714452,-0.317535 0.330765,-0.330765 0.476302,-0.846758 h 0.555685 q -0.489532,1.428905 -1.256907,1.944898 -0.767375,0.502763 -1.521519,0.502763 z" />
      <path
         id="path916"
         style="font-style:normal;font-variant:normal;font-weight:normal;font-stretch:normal;font-size:13.2306px;font-family:Lobster;-inkscape-font-specification:'Lobster Normal';font-variant-ligatures:normal;font-variant-caps:normal;font-variant-numeric:normal;font-variant-east-asian:normal;fill:#000000;stroke-width:0.330762"
         d="m 47.546936,41.475166 q -0.754144,0 -1.256907,-0.515993 -0.502763,-0.515994 -0.502763,-1.614134 0,-0.979064 0.383687,-2.050743 0.396918,-1.084909 1.164293,-1.825822 0.780606,-0.754145 1.852284,-0.754145 0.542455,0 0.807067,0.185229 0.264612,0.185228 0.264612,0.489532 v 0.05292 l 0.648299,-3.043038 1.958129,-0.264612 -1.521519,7.144524 q -0.05292,0.198459 -0.05292,0.383688 0,0.529224 0.542454,0.529224 0.238151,0 0.42338,-0.07938 -0.05292,0.66153 -0.476302,1.018756 -0.410149,0.343996 -0.979064,0.343996 -0.529224,0 -0.899681,-0.264612 -0.357227,-0.277843 -0.476302,-0.833528 -0.793836,1.09814 -1.878745,1.09814 z m 0.859989,-1.283368 q 0.291073,0 0.582146,-0.251382 0.304304,-0.251381 0.449841,-0.701221 l 0.05292,-0.21169 0.6483,-3.029807 q -0.119076,-0.463071 -0.542455,-0.463071 -0.529224,0 -0.952603,0.621838 -0.42338,0.608607 -0.66153,1.481827 -0.238151,0.859989 -0.238151,1.521519 0,0.66153 0.185228,0.846758 0.198459,0.185229 0.476302,0.185229 z" />
    </g>
    <g
       style="font-style:normal;font-variant:normal;font-weight:bold;font-stretch:condensed;font-size:21.3021px;line-height:1.25;font-family:'American Typewriter';-inkscape-font-specification:'American Typewriter Bold Condensed';font-variant-ligatures:normal;font-variant-caps:normal;font-variant-numeric:normal;font-variant-east-asian:normal;fill:#000000;fill-opacity:1;stroke:none;stroke-width:0.532553"
       id="text3853"
       aria-label="Tube">
      <path
         id="path919"
         style="font-style:normal;font-variant:normal;font-weight:normal;font-stretch:normal;font-size:21.3021px;font-family:Lobster;-inkscape-font-specification:'Lobster Normal';font-variant-ligatures:normal;font-variant-caps:normal;font-variant-numeric:normal;font-variant-east-asian:normal;fill:#000000;stroke-width:0.532553"
         d="m 21.029003,45.145512 h -0.255625 q -1.895887,0 -2.960992,0.958594 -1.043803,0.937293 -1.043803,3.34443 0,0.788177 0.149115,1.107709 0.149115,0.298229 0.149115,0.340833 -1.150314,0 -1.72547,-0.468646 -0.553855,-0.489948 -0.553855,-1.597657 0,-1.512449 0.745574,-2.747971 0.745573,-1.256824 2.364533,-2.023699 1.640261,-0.766876 4.153909,-0.766876 1.405939,0 3.024898,0.255625 1.363334,0.234323 2.428439,0.234323 1.363335,0 2.471044,-0.447344 -0.0426,1.384637 -0.702969,2.045002 -0.660365,0.660365 -1.959793,0.660365 -0.681668,0 -1.363335,-0.106511 -0.681667,-0.10651 -1.938491,-0.362135 l -2.93969,13.675947 h -3.067502 z" />
      <path
         id="path921"
         style="font-style:normal;font-variant:normal;font-weight:normal;font-stretch:normal;font-size:21.3021px;font-family:Lobster;-inkscape-font-specification:'Lobster Normal';font-variant-ligatures:normal;font-variant-caps:normal;font-variant-numeric:normal;font-variant-east-asian:normal;fill:#000000;stroke-width:0.532553"
         d="m 27.003576,59.375314 q -1.0225,0 -1.661563,-0.639063 -0.617761,-0.639063 -0.617761,-1.917189 0,-0.532552 0.170417,-1.384636 l 1.448542,-6.837974 h 3.067503 l -1.533752,7.242713 q -0.06391,0.319532 -0.06391,0.596459 0,0.873386 0.639063,0.873386 0.596459,0 1.022501,-0.489948 0.426042,-0.51125 0.681667,-1.384636 l 1.448543,-6.837974 h 3.067502 l -1.533751,7.242713 q -0.08521,0.319532 -0.08521,0.681668 0,0.426042 0.191718,0.617761 0.213021,0.170416 0.681668,0.170416 0.596458,0 1.0225,-0.51125 0.447344,-0.51125 0.70297,-1.363334 h 0.894688 q -0.788178,2.300626 -1.959793,3.131408 -1.150314,0.80948 -2.321929,0.80948 -0.91599,0 -1.469845,-0.51125 -0.532552,-0.511251 -0.639063,-1.512449 -0.724271,1.171615 -1.533751,1.597657 -0.788178,0.426042 -1.61896,0.426042 z" />
      <path
         id="path923"
         style="font-style:normal;font-variant:normal;font-weight:normal;font-stretch:normal;font-size:21.3021px;font-family:Lobster;-inkscape-font-specification:'Lobster Normal';font-variant-ligatures:normal;font-variant-caps:normal;font-variant-numeric:normal;font-variant-east-asian:normal;fill:#000000;stroke-width:0.532553"
         d="m 38.503715,59.375314 q -1.448543,0 -2.215418,-0.702969 -0.766876,-0.724272 -0.766876,-2.0237 0,-0.639063 0.149115,-1.214219 l 2.279325,-10.672352 3.15271,-0.426042 -1.0225,4.792972 q 0.596458,-0.362135 0.979896,-0.468646 0.383438,-0.127813 0.766876,-0.127813 2.513647,0 2.513647,3.642659 0,1.469845 -0.575156,3.152711 -0.553855,1.661564 -1.874585,2.854481 -1.299428,1.192918 -3.387034,1.192918 z m 1.192918,-2.066304 q 0.660365,0 1.235522,-0.809479 0.575156,-0.830782 0.91599,-2.045002 0.340833,-1.235522 0.340833,-2.364533 0,-0.852084 -0.298229,-1.448543 -0.298229,-0.596458 -0.830782,-0.596458 -0.319531,0 -0.724271,0.10651 -0.383438,0.08521 -0.532553,0.276927 l -1.171615,5.410733 q -0.06391,0.255626 -0.06391,0.489949 0,0.979896 1.129011,0.979896 z" />
      <path
         id="path925"
         style="font-style:normal;font-variant:normal;font-weight:normal;font-stretch:normal;font-size:21.3021px;font-family:Lobster;-inkscape-font-specification:'Lobster Normal';font-variant-ligatures:normal;font-variant-caps:normal;font-variant-numeric:normal;font-variant-east-asian:normal;fill:#000000;stroke-width:0.532553"
         d="m 48.118617,59.375314 q -1.555054,0 -2.42844,-0.80948 -0.873386,-0.830782 -0.873386,-2.577554 0,-1.469845 0.575157,-3.237919 0.575157,-1.768074 1.874585,-3.0462 1.299428,-1.299428 3.301825,-1.299428 2.343231,0 2.343231,2.045001 0,1.192918 -0.681667,2.194117 -0.681667,1.001198 -1.810679,1.618959 -1.129011,0.596459 -2.407137,0.681667 -0.0426,0.468647 -0.0426,0.639063 0,1.768075 1.32073,1.768075 0.596459,0 1.278126,-0.319532 0.681667,-0.319531 1.235522,-0.80948 -0.575157,3.152711 -3.685263,3.152711 z m 0.0426,-5.453337 q 0.80948,-0.0213 1.512449,-0.532553 0.724271,-0.51125 1.150313,-1.299428 0.447344,-0.80948 0.447344,-1.682866 0,-0.873386 -0.532552,-0.873386 -0.745574,0 -1.491147,1.363334 -0.724271,1.342033 -1.086407,3.024899 z" />
    </g>
    <path
       style="fill:#e6cfba;fill-opacity:1;stroke:none;stroke-width:0.222801px;stroke-linecap:butt;stroke-linejoin:miter;stroke-opacity:1"
       d="m 61.021417,61.699353 c 0.01314,0.444824 0.107408,1.243845 0.161622,1.616131 0.03107,0.213056 -0.03958,1.025618 0.565654,1.292904 0.04817,0.02408 0.113429,-0.02408 0.161596,0 0.934387,0.467181 2.744112,0.484839 3.95952,0.484839 0.54072,0 1.095006,0.04951 1.616139,-0.08084 0.513672,-0.128418 1.14932,0.152586 1.616113,-0.08084 0.366535,-0.183272 2.380458,0.183482 2.747439,0 0.217965,-0.109 0.641239,-0.156409 0.808057,-0.323226 0.121555,-0.121572 0.235211,-0.404033 0.404024,-0.404033 0.02114,0 0.311504,-0.06905 0.323217,-0.08084 0.0192,-0.01903 -0.01895,-0.06172 0,-0.08084 0.03815,-0.03806 0.123526,0.03806 0.161622,0 0.01895,-0.01903 -0.01895,-0.06173 0,-0.08084 0.03385,-0.03385 0.193435,-0.05634 0.242411,-0.08084 0.01667,-0.0084 0.316557,-0.383974 0.323243,-0.404032 0.01693,-0.05111 -0.02408,-0.113429 0,-0.161613 1.161766,-1.271785 -0.708665,-1.599441 -0.667757,-1.88628 0.148822,-2.90586 -0.03453,-2.149171 0.113437,-3.649346 -0.05937,-0.356421 -0.08571,-0.652507 -0.08571,-1.017012 1.131729,-2.675146 -0.03293,-2.928748 -0.04328,-3.558695 0.151685,-0.758433 0.04943,-1.597369 0.228559,-2.313984 0.213022,-0.852131 0.295521,-1.378351 0.09057,-2.198011 -0.158438,-0.633779 0.215566,-2.872 0.05718,-3.505771 -0.09108,-0.36432 0.137866,-2.352803 0.04328,-2.731178 -0.117016,-0.468064 0.411342,-2.263879 0.315109,-2.745038 -0.187777,-0.938867 0.105605,-1.714705 -0.05137,-2.656805 -0.05473,-0.328363 -0.259278,-0.649871 -0.323243,-0.969679 -0.03722,-0.185932 -0.04446,-0.383788 -0.08076,-0.565645 -0.04547,-0.227591 0.02476,-0.316692 0.08076,-0.484839 0.02417,-0.07259 0.127155,-1.996417 0.08084,-2.181776 -0.175255,-0.701096 -0.08084,-1.52676 -0.08084,-2.262575 0,-1.154768 0,-2.335886 -0.161596,-3.47468 -0.02973,-0.208231 0.23831,-1.135401 0.161596,-1.212098 -0.01895,-0.01903 -0.06172,0.01903 -0.08076,0 -0.09059,-0.09059 0.05962,-0.446482 0,-0.565646 -0.08584,-0.171667 0,-0.403072 -0.08084,-0.565645 -0.199658,-0.399275 -0.192147,-0.869125 -0.404032,-1.292896 -0.02442,-0.04876 0.03739,-0.205065 0,-0.24242 -0.01912,-0.01903 -0.06173,0.01903 -0.08084,0 -0.04042,-0.04042 0.04042,-0.202016 0,-0.242419 -0.04042,-0.04042 -0.121209,-0.04042 -0.161621,-0.08084 -0.03806,-0.03806 0.03806,-0.123525 0,-0.161613 -0.01895,-0.01903 -0.06172,0.01903 -0.08084,0 -0.05271,-0.05271 -0.124941,-0.249931 -0.161597,-0.323226 -0.07436,-0.148771 -0.168038,-0.01288 -0.242428,-0.161613 -0.118262,-0.236533 -0.283117,-0.283126 -0.404032,-0.404032 -0.0192,-0.01903 0.01895,-0.06173 0,-0.08084 -0.03806,-0.03806 -0.113429,0.02408 -0.161613,0 -0.152712,-0.07638 -0.345862,-0.276903 -0.484839,-0.323226 -0.102204,-0.0341 -0.220997,0.03411 -0.323226,0 -0.04935,-0.01642 -0.193099,-0.145175 -0.242403,-0.161613 -0.05112,-0.01701 -0.113429,0.02408 -0.161622,0 -0.200096,-0.100048 -0.403493,-0.282553 -0.64646,-0.404032 -0.102423,-0.0512 -0.367798,0 -0.484839,0 -0.218682,0 -1.126483,-0.0832 -1.292896,0 -0.297753,0.14888 -0.672195,0.09368 -0.969679,0.242419 -0.125479,0.06274 -0.352025,-0.04429 -0.484839,0 -0.305239,0.101749 -0.638056,0.159517 -0.969678,0.24242 -0.513958,0.128494 -1.103401,-0.04741 -1.616139,0.08084 -0.372008,0.093 -0.766904,0.07048 -1.131274,0.161613 -0.0704,0.0176 -0.726619,0.24178 -0.727267,0.24242 -0.01895,0.01903 0.01895,0.06172 0,0.08084 -0.0373,0.0373 -1.116421,0.31579 -1.292896,0.404032 -0.04884,0.02442 -0.205065,-0.03739 -0.242412,0 -0.01895,0.01903 0.02408,0.06872 0,0.08084 -0.161621,0.08084 -0.121226,-0.04042 -0.242428,0 -0.328034,0.109336 -0.77887,0.213233 -0.969678,0.404032 -0.03739,0.0373 0.02442,0.193629 0,0.24242 -0.08919,0.178379 -0.147121,0.213452 -0.242411,0.404032 -0.123542,0.247077 0,0.926438 0,1.21209 0,0.05389 -0.03806,0.123525 0,0.161613 0.01895,0.01903 0.06172,-0.01903 0.08076,0 0.04092,0.04093 0,2.224958 0,2.585809 0,0.215481 -0.02695,-0.02695 0.08084,0.08084 0.09948,0.09948 0.01002,0.666494 0.08084,0.808065 0.01204,0.02408 0.06173,-0.01903 0.08084,0 0.120586,0.120587 -0.04312,0.716446 0,0.888872 0.01474,0.05844 0.06897,0.102549 0.08084,0.161613 0.116191,0.581014 0,2.273454 0,2.909026 0,0.80527 0.153083,2.126552 -0.08084,2.828229 -0.08778,0.263362 0,0.680295 0,0.969678 0,0.469816 -0.08084,0.908955 -0.08084,1.373711 0,0.207144 0.06282,0.538758 0,0.72725 -0.01204,0.03613 -0.07158,0.04387 -0.08084,0.08084 -0.124409,0.49769 0.16254,2.260747 0,2.585801 -0.132898,0.265821 -0.0025,1.375496 -0.08084,1.454517 -0.01895,0.01903 -0.07225,-0.02551 -0.08076,0 -0.128308,0.384926 0.01693,1.070855 0.08076,1.454517 0.06787,0.407157 0,0.876788 0,1.292896 0,0.350502 -0.166413,2.17216 -0.08076,2.343389 0.220618,0.441253 -0.01802,1.041189 0.08076,1.535324 0.05549,0.277476 0.125328,0.517757 0.161622,0.808066 0.0059,0.04429 0.07865,0.886699 0.08084,0.888871 0.0192,0.01903 0.06181,-0.01903 0.08084,0 0.07874,0.07882 0.01911,0.765717 0.08084,0.888864 0.06964,0.139356 0.09193,0.264684 0.161596,0.404041 0.04345,0.08683 -0.03116,0.229729 0,0.323217 0.161041,0.483088 0.242437,0.942117 0.242437,1.454518 0,0.03326 -0.02139,0.22103 0,0.242419 0.01911,0.01903 0.06172,-0.01903 0.08084,0 0.03806,0.03806 0.07537,0.87795 0.161596,1.050485 0.06274,0.125488 -0.04429,0.352026 0,0.484839 0.09839,0.295134 0.144115,0.674755 0.242437,0.969679 0.0051,0.01634 -0.02686,0.296338 0,0.323226 0.01895,0.01903 0.06172,-0.01903 0.08084,0 0.0645,0.0645 -0.04236,0.319251 0,0.404032 0.111669,0.223338 0.08337,0.651665 0.161596,0.808066 0.166211,0.332396 0.242436,0.919666 0.242436,1.373702 0,0.249198 0.01154,0.55416 -0.161621,0.727259 z"
       id="path4710"
       inkscape:connector-curvature="0"
       sodipodi:nodetypes="csccsccccscccccccccccccccscccccsccscccccccccccccccccccscccccccccccccccscsscccccscssccccscsccccccccscccccccccscc" />
    <path
       style="fill:url(#radialGradient5744);fill-opacity:1;stroke:#000000;stroke-width:0.222801px;stroke-linecap:butt;stroke-linejoin:miter;stroke-opacity:1"
       d="m 65.304163,25.498073 c -0.06871,0.364867 -0.459198,0.459215 -0.646444,0.646452 -0.127348,0.127349 -0.140493,0.382922 -0.242428,0.48484 -0.01911,0.01903 -0.06172,-0.01903 -0.08084,0 -0.09628,0.09628 -0.104629,0.290056 -0.161596,0.404032 -0.05111,0.102213 -0.179044,0.14734 -0.242437,0.24242 -0.0165,0.02476 -0.143264,0.429817 -0.161621,0.484839 -0.02274,0.06812 0.03191,0.178606 0,0.242419 -0.06711,0.134263 -0.108326,0.244214 -0.161596,0.404033 -0.04867,0.145925 0.03747,0.334923 0,0.484839 -0.05322,0.212753 -0.181646,1.17204 -0.08084,1.373711 0.131677,0.263371 0.109968,0.624002 0.242402,0.888863 0.08194,0.163794 0.157167,0.157167 0.242437,0.24242 0.03385,0.03385 0.05634,0.193452 0.08084,0.24242 0.168148,0.336303 -0.0059,-0.08638 0.161596,0.08084 0.0528,0.05271 0.124974,0.249931 0.161622,0.323226 0.141655,0.283336 1.023689,1.07749 1.292896,1.212098 0.04817,0.02408 0.113428,-0.02408 0.161621,0 0.55224,0.276128 1.244173,0.280044 1.85855,0.484839 0.242428,0.08084 0.565646,-0.08084 0.808057,0 0.711874,0.237283 1.617267,0.03983 2.181784,-0.24242 0.136241,-0.06812 0.307134,0.01608 0.404025,-0.08084 0.01895,-0.01903 -0.01895,-0.06173 0,-0.08084 0.174614,-0.174607 0.431678,-0.297694 0.565654,-0.565646 0.02408,-0.04817 -0.02408,-0.113429 0,-0.161613 0.08269,-0.165335 0.265063,-0.391174 0.323217,-0.565646 0.131256,-0.393767 0.605999,-2.10107 0.404033,-2.504993 -0.116755,-0.233511 -0.160712,-0.562977 -0.242411,-0.808066 -0.04261,-0.127769 0.02644,-0.271968 0,-0.404032 -0.02585,-0.129286 -0.119762,-0.278427 -0.161622,-0.404033 -0.05364,-0.160931 -0.02796,-0.326232 -0.08084,-0.484839 -0.170918,-0.512754 -0.65814,-1.14884 -0.969678,-1.61613 -0.07351,-0.11028 -0.450642,-0.669753 -0.565629,-0.727259 -0.02408,-0.01204 -0.05389,0 -0.08084,0 -0.05389,-0.02695 -0.113429,-0.04463 -0.161622,-0.08084 -0.09141,-0.06855 -0.134009,-0.206278 -0.242402,-0.24242 -0.298444,-0.09948 -0.652347,-0.178943 -0.969679,-0.242419 -0.105656,-0.02114 -0.218706,0.0261 -0.323243,0 -0.846178,-0.211541 -1.571777,-0.22418 -2.34338,0.161613 -0.04362,0.02181 -0.356261,0.11385 -0.404033,0.161613 -0.06737,0.06737 -0.09426,0.175086 -0.161621,0.242419 -0.27948,0.279505 -0.03781,-0.328405 -0.404025,0.404033 z"
       id="path5736"
       inkscape:connector-curvature="0" />
    <path
       inkscape:connector-curvature="0"
       id="path5750"
       d="m 64.826254,40.199471 c -0.06871,0.364867 -0.459197,0.459214 -0.646443,0.646452 -0.127349,0.127349 -0.140494,0.382922 -0.242428,0.484839 -0.01912,0.01903 -0.06172,-0.01903 -0.08084,0 -0.09627,0.09628 -0.104629,0.290057 -0.161596,0.404033 -0.05111,0.102212 -0.179044,0.14734 -0.242436,0.24242 -0.0165,0.02476 -0.143264,0.429817 -0.161622,0.484839 -0.02274,0.06812 0.03191,0.178606 0,0.242419 -0.06711,0.134262 -0.108326,0.244213 -0.161596,0.404033 -0.04867,0.145925 0.03747,0.334922 0,0.484839 -0.05322,0.212753 -0.181646,1.17204 -0.08084,1.373711 0.131677,0.263371 0.109968,0.624002 0.242403,0.888863 0.08193,0.163794 0.157166,0.157167 0.242436,0.24242 0.03385,0.03385 0.05634,0.193452 0.08084,0.242419 0.168148,0.336304 -0.0059,-0.08638 0.161596,0.08084 0.0528,0.05271 0.124974,0.24993 0.161622,0.323226 0.141655,0.283336 1.023689,1.07749 1.292896,1.212097 0.04817,0.02408 0.113429,-0.02408 0.161621,0 0.55224,0.276129 1.244173,0.280044 1.85855,0.48484 0.242428,0.08084 0.565646,-0.08084 0.808057,0 0.711874,0.237282 1.617267,0.03983 2.181785,-0.24242 0.136241,-0.06813 0.307133,0.01608 0.404024,-0.08084 0.01895,-0.01903 -0.01895,-0.06173 0,-0.08084 0.174615,-0.174607 0.431678,-0.297694 0.565654,-0.565646 0.02408,-0.04817 -0.02408,-0.113429 0,-0.161613 0.08269,-0.165335 0.265063,-0.391174 0.323218,-0.565646 0.131255,-0.393767 0.605998,-2.10107 0.404032,-2.504994 -0.116755,-0.23351 -0.160712,-0.562976 -0.242411,-0.808065 -0.04261,-0.127769 0.02644,-0.271968 0,-0.404032 -0.02585,-0.129286 -0.119761,-0.278428 -0.161621,-0.404033 -0.05364,-0.160931 -0.02796,-0.326232 -0.08084,-0.484839 -0.170918,-0.512754 -0.65814,-1.148841 -0.969678,-1.616131 -0.07351,-0.110279 -0.450642,-0.669752 -0.565629,-0.727258 -0.02408,-0.01204 -0.05389,0 -0.08084,0 -0.05389,-0.02695 -0.113429,-0.04463 -0.161621,-0.08084 -0.09141,-0.06855 -0.13401,-0.206278 -0.242403,-0.24242 -0.298444,-0.09948 -0.652347,-0.178943 -0.969678,-0.24242 -0.105657,-0.02114 -0.218707,0.02611 -0.323243,0 -0.846178,-0.21154 -1.571778,-0.22418 -2.343381,0.161613 -0.04362,0.02181 -0.356261,0.11385 -0.404033,0.161613 -0.06737,0.06737 -0.09426,0.175087 -0.161621,0.24242 -0.27948,0.279505 -0.03781,-0.328405 -0.404024,0.404033 z"
       style="fill:url(#radialGradient5752);fill-opacity:1;stroke:#000000;stroke-width:0.222801px;stroke-linecap:butt;stroke-linejoin:miter;stroke-opacity:1" />
    <path
       sodipodi:nodetypes="ccccccccccccccsccccc"
       inkscape:connector-curvature="0"
       id="path3707"
       style="fill:url(#radialGradient3825);fill-opacity:1;fill-rule:nonzero;stroke:none;stroke-width:0.017811;stroke-miterlimit:4;stroke-dasharray:none;stroke-opacity:1"
       d="m 68.025539,34.101248 c -1.005778,0.105909 -1.932123,-0.02535 -2.969682,-0.390593 -0.02737,0.05204 -0.804579,-0.575102 -1.032801,-0.829673 l 0.04295,-0.0025 -0.336548,-0.454895 -0.05659,0.0025 c -0.32886,-0.488603 -0.570294,-1.056876 -0.705003,-1.678748 l -0.04025,-0.216887 h -0.0025 c -0.0837,-0.48302 -0.104494,-0.995109 -0.05221,-1.525581 0.21938,-2.20058 1.618471,-4.07897 3.409621,-4.83768 l 0.01634,0.0076 0.648389,-0.197579 -0.04345,-0.02282 c 0.360783,-0.09549 0.73253,-0.14654 1.109784,-0.14654 h 0.0084 c 0.622537,0.0025 1.202153,0.142472 1.720229,0.394685 0.474574,0.231355 0.896383,0.556509 1.249992,0.956298 0.847483,0.956811 1.303371,2.340459 1.15268,3.878283 -0.209536,2.13675 -1.536545,3.97173 -3.254012,4.770272" />
    <path
       d="m 67.962888,48.896589 c -1.020961,0.101572 -1.961301,-0.02434 -3.014531,-0.37461 -0.02779,0.04993 -0.816731,-0.551575 -1.048397,-0.795721 l 0.04362,-0.0025 -0.341634,-0.436284 -0.05743,0.0025 C 63.210688,46.82137 62.965607,46.276347 62.82887,45.679923 l -0.04084,-0.208012 h -0.0025 c -0.08497,-0.463248 -0.106077,-0.954386 -0.05297,-1.463148 0.222698,-2.110528 1.642917,-3.912052 3.461115,-4.639715 l 0.01659,0.0076 0.658174,-0.189494 -0.04413,-0.0219 c 0.366232,-0.09159 0.743587,-0.140544 1.126542,-0.140544 h 0.0085 c 0.631943,0.0025 1.220309,0.136637 1.746208,0.378535 0.48174,0.221881 0.909924,0.53373 1.268871,0.917157 0.860283,0.917663 1.323059,2.244688 1.170086,3.719576 -0.212694,2.049316 -1.559744,3.809199 -3.303156,4.575067"
       style="fill:url(#radialGradient3676);fill-opacity:1;fill-rule:nonzero;stroke:none;stroke-width:0.017574;stroke-miterlimit:4;stroke-dasharray:none;stroke-opacity:1"
       id="path3674"
       inkscape:connector-curvature="0"
       sodipodi:nodetypes="ccccccccccccccsccccc" />
    <path
       sodipodi:nodetypes="cccccccccccccccccccccccccccccccccccccccccccccccccccccccccccccccccccccccccccccccccccccccccccccccsccccccccccccczcccccccccccccccccczccccccccccccccccccccccccccccccccccccccccccccccccccccccccccccccccccccccccccccccccccccccccccccccccccccccccscccccccccccccccccccccccccccccccccccccccccccccccccccccccccccccccccccccccccccccccccccccccccccccccccccccccccccccccccccccccccccccccccccccccccccccccccccccccccccccccccccccccccccccccccccccccccccccccccccccccccccccccccccccccccccccccccccccccccccccccccccccccccccccccccccccccccccccccccccccccccccccccccccccccccccccccccccccccccccccccccccccccccccccccccccccccccccccccccccccccccccccccccccccccccccccccccccccccccccccccccccccc"
       inkscape:connector-curvature="0"
       d="m 42.577126,6.2739699 c -0.218655,0.092938 -0.43012,0.2162198 -0.586596,0.397301 -2.327095,3.2140508 -4.428452,6.5820521 -6.630531,9.8798631 -0.422904,0.874093 -1.514752,0.281366 -2.217135,0.215843 -0.278461,-1.251347 -0.314654,-2.556735 -0.730636,-3.778057 -0.131954,-0.547438 -0.990839,-0.553953 -1.254564,-0.127502 -0.272297,1.37203 0.201073,2.760138 0.291993,4.120527 -1.688112,0.286292 -3.180978,1.166979 -4.695376,1.908612 -7.853676,0.187389 -15.7295,-0.167912 -23.5800015,0.278932 -0.6703084,0.144873 -1.4675781,-0.03503 -2.0604737,0.36032 l -0.018273,0.174927 c 1.6074233,0.302628 3.3311133,-0.3431 4.9965057,-0.2389 6.6729635,-0.105387 13.3506925,-0.105564 20.0225615,0.04615 -0.187617,0.337938 -0.84137,0.151315 -1.166221,0.300692 -6.571577,0.569907 -13.233382,1.110736 -19.7888912,0.08965 -0.8948084,-0.187179 -1.5260189,0.742332 -2.3916406,0.651428 -0.4196196,0.0042 -0.1456135,-0.817067 -0.627059,-0.565704 -0.2106308,0.496923 0.082945,1.535248 -0.5883398,0.96823 -0.5391621,2.617959 -0.96677313,5.348186 -0.87858993,8.048274 0.3182241,4.354053 0.12046874,8.722439 0.0248415,13.080905 -0.1236771,8.068147 0.0138944,16.170702 1.13663853,24.173992 0.1981091,0.992213 0.049262,2.050689 0.3372469,3.013049 0.527676,-0.182884 0.2617285,-1.02075 0.4360318,-1.459089 0.1106837,0.461631 -0.182522,1.877606 0.696691,1.178406 0.4258258,1.028169 0.1597605,2.260856 0.7710977,3.211916 0.3755785,-0.03158 0.069641,-0.828562 0.5552712,-0.855088 1.6473381,-0.259042 3.3333027,-0.269829 4.9999836,-0.288944 -0.5230614,0.446987 -1.9310957,-0.07301 -2.3737969,0.633155 0.7420204,0.746071 1.9875996,0.811863 2.9320992,1.225411 l 1.752397,0.182767 c 2.810856,-0.02198 5.610967,-0.353634 8.374212,-0.856393 3.538822,-0.621215 7.134358,-0.767241 10.719285,-0.856392 7.534947,-0.133825 15.073136,-0.183718 22.608715,-0.04615 1.617225,-0.07503 3.304301,0.640718 4.862917,0.02392 6.05403,-0.447013 12.148936,-0.0084 18.200987,-0.454743 l 0.01272,-0.122718 c -2.590474,-0.315739 -5.223414,-0.161082 -7.815488,-0.338114 1.1618,-0.103913 2.355372,0.04337 3.484777,-0.305045 -0.141833,-0.304776 -1.100682,-0.422028 -0.240651,-0.468671 1.306512,-0.443746 3.10764,-1.126837 3.094857,-2.792853 1.421045,-12.703827 1.342268,-25.518432 1.604864,-38.273601 0.258806,4.362634 0.175634,8.737361 0.183204,13.106572 -0.09899,6.746174 -0.0025,13.521257 -0.650553,20.237107 0.481361,0.563288 0.25575,-0.663875 0.570479,-0.722366 -0.243119,3.010186 -1.03846,5.950437 -1.167105,8.972556 0.0087,0.10185 -0.04286,0.287033 0.12185,0.248912 0.521562,-1.055411 0.525747,-2.267829 0.747174,-3.404687 1.64951,-10.084916 1.803907,-20.320204 2.024373,-30.512967 0.08126,-4.664741 0.0549,-9.344926 -0.477378,-13.982989 -0.05751,-0.187962 -0.260188,-0.835324 -0.449522,-0.437767 0.908138,7.87867 0.501815,15.843796 0.261973,23.755804 -0.223608,4.302695 -0.25175,8.642526 -0.889024,12.904657 0.363562,-9.468628 0.743309,-18.96694 0.226698,-28.442473 -0.222934,-2.918609 -0.36016,-5.917781 -1.435579,-8.677084 -0.470397,-1.655229 -2.223207,-2.54325 -3.889475,-2.534375 -5.491416,-0.305096 -10.988003,0.08518 -16.482543,0.148831 -4.553796,0.112873 -9.107736,0.172223 -13.661827,0.244558 -1.891871,0.254756 -3.325176,-1.225815 -4.96299,-1.90905 -0.369364,-0.09638 -0.05836,-0.359444 0.06829,-0.537857 2.118038,-3.077671 4.242949,-6.158784 6.12965,-9.3859577 0.294881,-0.435418 0.413699,-1.1563619 -0.208004,-1.3729286 z M 31.081077,17.625113 c 0.116199,0.02644 -0.407595,0.269703 -0.508266,0.296338 -1.06923,0.233805 -1.735715,1.414586 -2.916008,1.245866 0.776268,-0.914404 2.175612,-1.217403 3.332453,-1.539156 0.04581,-0.0067 0.0752,-0.0067 0.09182,-0.0034 z m 5.184492,0.383806 c 0.950344,0.29585 1.910642,0.707722 2.677967,1.352911 -0.900543,0.145293 -2.131007,-0.586024 -2.677967,-1.352911 z m 20.813701,1.635768 c 1.316845,0.03638 -0.948382,0.141596 0,0 z m 13.844593,1.006957 v 0 c 0.03773,-0.0025 0.08134,-0.0017 0.131407,0.0025 0.738475,0.06989 1.592207,0.01785 2.228461,0.451257 0.311993,0.526303 0.0087,1.213891 0.0067,1.788505 -0.590176,-0.444756 -1.027538,-1.306807 -1.835056,-1.578758 -0.326965,0.01415 -1.099376,-0.631379 -0.532206,-0.663185 z M 64.547895,20.8318 c 0.221687,0.01095 0.45641,0.130405 0.226723,0.339865 -0.535744,0.272701 -1.215559,0.522237 -1.815924,0.409481 0.248474,-0.532846 -0.651067,-0.380698 -0.65361,0.06661 -1.125102,0.689635 -2.59183,0.608634 -3.761074,1.246733 -0.40463,0.414971 0.803089,0.02745 0.809817,0.510439 0.01827,0.582529 0.149748,1.262934 -0.224087,1.758914 -0.239624,1.250059 0.09425,2.518652 0.01137,3.771533 -0.02947,0.338349 -0.49273,0.282949 -0.600963,0.537856 0.310654,0.52942 0.785489,1.021172 0.801994,1.671018 0.07899,2.233598 -0.0629,4.469495 -0.145774,6.701021 0.202657,0.338123 -0.226411,0.407309 -0.193637,0.148393 -0.286722,-3.275047 -0.933898,-6.51594 -1.751092,-9.698408 -0.182581,-0.450482 -0.210765,-1.053213 -0.643605,-1.342032 -0.408757,0.294301 -0.15982,1.087385 -0.508258,1.290244 -1.284964,-1.75494 -3.625026,-1.79595 -5.573966,-2.116178 -7.222879,0.0688 -13.907707,-1.223693 -20.189235,-1.091385 -6.281528,0.132317 -10.970892,-7.58e-4 -17.410303,0.269804 -1.450559,0.147744 -3.1638327,-0.0076 -4.3015575,1.03089 -0.1259592,-0.302477 0.1322916,-0.91853 -0.1879872,-1.053517 -0.5411999,1.200604 -0.521554,2.570357 -0.8516095,3.830268 -0.7368837,0.38869 -1.8489418,0.281088 -2.4220988,0.912535 0.6413238,0.435333 1.5839038,-8.42e-4 2.3394145,0.0051 -0.2558424,2.811463 -0.5728876,5.615851 -0.8912044,8.422084 -0.2550087,5.763494 -0.026863,11.612831 1.2750185,17.250601 0.629661,1.947028 0.4921148,4.086566 1.3233205,5.96909 1.6033389,1.945032 4.2539039,2.288956 6.4891019,3.113569 l 0.671016,0.149689 c 1.349526,0.263379 4.468022,0.435467 6.992173,0.561991 2.524151,0.126523 17.388703,0.03638 27.658281,-0.05196 1.428471,-0.05297 2.90191,0.119265 4.287646,-0.307226 2.385022,-1.099655 3.486781,-3.74467 3.964286,-6.172302 0.40474,-1.538254 0.251304,-3.207958 0.729347,-4.703207 0.611413,3.009908 0.537335,7.630347 1.357669,10.683901 0.703756,-0.08487 -0.248146,-2.781636 0.124469,-3.395407 0.178,-0.04185 0.24364,0.194092 0.255025,0.331588 -0.0084,0.878767 0.643606,1.781979 1.562212,1.852041 0.249055,0.01634 0.324734,0.277467 0.497386,0.409918 0.667934,-0.671074 1.938195,-0.398668 2.844203,-0.392942 0.568517,-0.149057 0.407544,0.533891 0.016,0.525234 -2.301142,0.732901 -4.772259,0.318494 -7.090941,-0.10009 -0.17091,0.479854 -0.908829,-0.07124 -1.043933,0.398171 0.125302,0.370569 0.634671,0.346712 0.960381,0.460402 3.308301,0.492191 6.662732,0.450188 9.997365,0.4121 1.604973,-0.0995 3.488297,-0.218824 4.530008,-1.637949 -0.256205,1.162171 0.01895,2.780398 -1.007379,3.619225 -3.330018,1.412 -7.054798,0.996894 -10.582657,1.161446 -14.30624,0.04766 -27.083877,0.280566 -34.309029,0.09172 C 20.887042,68.493779 16.298931,68.61829 15.947419,68.657447 12.570227,68.826133 9.1314701,69.252094 5.7864371,68.588227 4.5549629,68.311947 4.7321882,66.793457 4.5140291,65.833235 3.4103413,56.672633 4.1267624,47.418316 3.515341,38.229311 3.576729,32.830137 3.5894445,27.404066 4.2033248,22.034845 c 0.591464,-0.08557 1.187829,-0.142144 1.7841602,-0.187987 9.335301,0.741886 18.720268,0.04387 28.073454,0.441682 4.65531,0.251994 9.306678,-0.134691 13.961247,-0.159263 2.402739,-0.0176 4.811432,0.03301 7.20842,-0.157529 2.966962,-0.736143 6.070704,-0.897411 9.117891,-1.114012 0.0533,-0.02114 0.12542,-0.02973 0.199296,-0.0261 z m 4.916431,0.462145 c 0.86537,0.0094 -0.651201,1.051167 -0.375107,1.698427 0.734114,-0.19544 0.7176,-1.333131 1.532655,-1.441684 1.250632,0.400454 2.334766,1.411613 2.535662,2.753257 0.331016,2.128717 0.310115,4.301744 0.375554,6.449062 -0.484974,0.951211 -0.888796,1.988711 -1.572671,2.812439 -0.229434,-0.204602 0.274832,-0.786516 0.357264,-1.083983 1.98013,-3.389108 -0.130473,-8.617372 -4.147516,-9.187961 -0.593678,-0.411047 -1.422661,-0.846683 -1.693206,-1.520444 0.820865,-0.47252 1.853935,-0.450482 2.781543,-0.466928 0.08008,-0.0089 0.14814,-0.0128 0.205822,-0.01221 z m -4.436005,0.469538 c 0.128115,0.02299 0.655707,-0.09126 0.572669,0.211919 -0.293046,0.590572 -0.659294,1.170844 -1.136647,1.629671 -0.401043,-0.328581 -0.848982,-0.857638 -0.861614,-1.415133 0.364994,-0.355452 0.943768,-0.356454 1.425592,-0.426457 z m 8.841578,0.399039 c 0.281938,0.440908 0.343899,1.140512 0.506969,1.67319 0.81369,5.39269 0.763224,10.872208 0.588752,16.307171 -0.09549,0.114145 0.106229,0.767013 -0.214959,0.579203 -0.47134,-0.906244 -0.359402,-1.97629 -0.391645,-2.962137 0.141706,0.182598 0.523516,0.218033 0.534817,-0.07528 -0.112781,-0.521647 -0.646107,-0.893478 -0.539163,-1.487376 -0.216163,-3.539024 -0.230798,-7.098915 -0.02914,-10.636171 0.241098,-0.400521 0.229713,-1.030485 -0.372926,-0.862489 -0.280532,-0.762896 -0.02796,-1.704802 -0.08269,-2.536109 z m -11.173169,0.04573 c 0.987168,0.76906 1.731437,2.475538 0.391216,3.273271 -0.54435,-0.205932 -1.095343,-0.68619 -1.446897,-1.156217 0.316111,-0.719335 0.715352,-1.40603 1.055681,-2.117054 z M 3.4741041,22.436267 C 3.4364628,26.583462 3.1620356,30.726961 3.0032688,34.870527 2.5261011,32.133092 2.3644291,29.173313 2.5263284,26.33791 c 0.092596,-1.313602 0.00168,-2.851899 0.9477757,-3.901643 z m 58.1351729,0.06358 c 0.742728,0.0485 -0.195692,0.99697 -0.480426,1.291995 -0.464857,-0.04337 -0.95181,-0.442053 -1.283718,-0.730636 0.576408,-0.212525 1.171468,-0.402609 1.764144,-0.561359 z m 4.584415,0.0067 c 0.458414,0.0067 1.088159,0.625316 0.673171,1.020886 -0.486708,0.474574 -1.109801,0.837951 -1.754123,1.035681 -0.576677,0.08582 -0.248617,-0.619093 -0.07351,-0.836814 0.319605,-0.413548 0.551297,-1.03169 1.06528,-1.212789 0.02863,-0.0051 0.05861,-0.0076 0.08921,-0.0067 z m -6.167089,1.422106 c 1.394535,0.185916 0.305887,1.786265 -0.09445,2.431235 0.06097,-0.799947 -0.176704,-1.662209 0.09445,-2.431235 z m 1.248021,0.975632 c 0.526859,0.269046 1.078189,0.7649 1.517413,1.226708 -0.273644,0.484569 -0.649821,0.904299 -0.881201,1.415141 -0.362164,0.760185 -1.116276,-0.222218 -1.508697,-0.540905 0.19896,-0.718046 0.597864,-1.397222 0.872485,-2.100944 z m 3.075717,0.05701 c 0.4081,0.328683 -0.387923,1.107822 -0.828115,1.099216 0.102667,-0.44196 0.428984,-0.884922 0.828115,-1.099216 z m 3.963444,0.414272 c 2.718934,0.193478 3.780964,4.00602 2.609648,6.113128 -1.132942,2.602339 -5.769961,2.120835 -6.423394,-0.553966 0.88312,0.47209 1.851459,0.740977 2.834198,0.936029 -0.440503,0.216407 -1.272736,0.182278 -1.466062,0.679723 1.415613,0.421514 2.751607,-0.80063 3.698002,-1.737155 1.361787,-1.343952 1.378334,-3.966736 -0.514363,-4.869435 -1.572115,-0.709171 -3.012839,0.652709 -4.09182,1.62749 0.561478,-1.314874 1.962683,-2.112599 3.353791,-2.195814 z m 0.197983,1.184074 c 1.376692,0.239985 1.845733,2.093087 1.039613,3.164481 -0.768647,1.760077 -3.429275,1.993208 -4.608793,0.60226 -0.595211,-1.241302 0.422433,-2.570643 1.384246,-3.285026 -0.03091,0.543313 -1.134197,1.687901 -0.606175,2.297209 0.873714,-0.979472 1.231289,-2.618793 2.791109,-2.778924 z m -5.41685,0.06265 c 0.451526,0.398803 -0.07368,1.699261 -0.520021,2.181894 -0.875946,-0.540788 0.172139,-1.583542 0.520021,-2.181894 z m -38.144375,0.216273 c -0.02467,0.119593 0.51864,-0.100992 0.446473,0.06703 -4.129048,0.170673 -8.218047,0.892863 -12.347221,1.033946 -0.676927,-0.69814 -1.207938,0.98044 -1.925142,0.582243 -0.244432,-0.344413 -0.286377,-1.104294 0.0966,-1.305485 4.564053,-0.365145 9.151995,-0.38496 13.729286,-0.377718 z m 8.780652,0.778499 c 0.301501,-0.0084 0.747974,0.06686 0.905571,0.09835 0.284507,0.05692 0.553368,-0.07116 0.80025,0.11401 0.01583,0.01179 0.02695,0.02627 0.04135,0.03874 0.185663,-0.0373 0.389565,-0.03739 0.558294,-0.05827 3.898005,-0.131744 7.76727,0.542454 11.557842,1.391639 0.311008,0.03882 0.916627,0.217738 1.07355,-0.09704 -0.979085,-0.556678 -2.391843,-0.572888 -3.295039,-0.994335 2.681487,0.293737 5.388438,0.459914 8.029134,1.040035 0.736041,0.155828 1.542229,0.409531 1.93603,1.10965 1.410409,2.469516 1.783175,5.348918 2.026984,8.135312 0.390147,5.693171 0.106877,11.410948 -0.392951,17.086546 -0.199945,2.096506 -0.450061,4.197745 -0.994343,6.235845 -4.218772,0.72906 -8.500044,0.997795 -12.76759,1.281974 -6.178474,0.413497 -12.381301,0.610461 -18.569568,0.297652 -0.963632,-0.148022 -1.942683,-0.286933 -2.918189,-0.347689 -1.058619,-0.06594 -2.004508,-0.443838 -3.044804,-0.52872 -1.296197,-0.105775 -3.582914,-1.709122 -5.173621,-1.89817 0.694147,1.007917 2.10347,1.259919 3.087464,1.966918 -1.645174,0.108805 -3.123363,-1.052515 -4.753253,-0.855955 -0.756613,-0.273071 -1.461818,-0.921258 -1.56222,-1.752826 0.367781,0.203599 0.292195,0.917654 0.793295,0.909486 0.197166,-0.503475 0.114734,-1.053634 0.100082,-1.579197 0.503845,0.354097 0.687799,1.027959 1.171888,1.386418 0.394357,-0.01415 0.03326,-0.551886 -0.03874,-0.731065 -1.372995,-1.897227 -1.324676,-4.336866 -1.532637,-6.566557 0.03596,-0.202656 -0.154321,-0.727722 0.156223,-0.591818 0.901183,2.037704 1.31773,4.247159 2.005654,6.350723 0.335193,0.701078 0.144999,-0.88254 0.587464,-0.23586 0.131719,0.24135 0.79519,0.979244 0.724539,0.294166 -1.681367,-2.682952 -2.671945,-5.74928 -3.148381,-8.869855 -1.063284,-6.927164 -0.833656,-14.200054 1.226287,-20.87679 6.806872,-0.766087 13.635116,-1.47167 20.487317,-1.640121 -0.0017,-0.0059 -0.0042,-0.01154 -8.42e-4,-0.01482 0.02459,-0.02459 0.136561,0.01162 0.171457,0 0.05625,-0.01878 0.113833,-0.04589 0.171449,-0.05743 0.09205,-0.01844 0.259151,0.04185 0.342905,0 0.05212,-0.02611 0.136662,-0.03806 0.237165,-0.04093 z M 60.309451,27.7272 c 0.379856,0.204854 0.753557,0.432941 1.08224,0.715394 -0.379149,0.768706 -0.62327,1.686975 -1.206254,2.314185 -0.07789,-0.997686 -0.164493,-2.069467 0.124014,-3.029579 z m 1.479115,1.251516 c 1.470491,0.610486 0.182471,2.165742 -0.131854,3.139244 -0.261948,0.816284 -0.996372,-0.167651 -0.939961,-0.684506 0.225813,-0.864426 0.625964,-1.681426 1.071815,-2.454738 z m -51.144769,0.483896 c 0.147634,0.933578 -0.318098,1.90809 -0.567878,2.755868 0.03562,-0.92733 0.05768,-1.951323 0.567878,-2.755868 z m 0.84291,0.05314 c 0.318898,-0.0025 0.159971,0.429169 0.08703,0.648819 -1.195484,3.399558 -1.198835,7.11462 -1.6666641,10.59005 -0.3657261,-2.677588 0.2894501,-5.381827 0.6470841,-8.034792 0.262528,-1.062485 0.280338,-2.244015 0.862051,-3.197988 0.02568,-0.0042 0.04926,-0.0059 0.07048,-0.0059 z M 9.326135,29.804254 C 9.7845074,29.983863 9.3545133,30.85644 9.1551159,31.141065 8.982522,30.829224 8.9181193,30.072922 9.326135,29.804254 Z m 53.34753,1.339421 c 0.413725,0.928526 1.330865,2.319255 0.57746,3.378144 -0.540232,-0.325735 -0.918505,-0.927237 -1.347261,-1.403386 0.06737,-0.707975 0.385246,-1.382157 0.769801,-1.974758 z m -2.373351,1.025677 c 0.866052,0.518523 0.89491,1.81888 0.204534,2.403388 -0.38213,-0.651968 -0.06509,-1.637848 -0.204534,-2.403388 z m 13.081344,0.03739 c -0.0059,0.862169 0.119129,2.063741 0.02914,3.050033 -0.482473,-0.05928 -0.774635,-0.58743 -1.116168,-0.888593 0.321214,-0.738425 0.73493,-1.435899 1.087032,-2.16144 z M 9.326135,32.744598 c 0.00168,2.095698 -0.1211508,4.247016 -0.217578,6.362031 -0.074272,-2.038284 -0.1682319,-4.314484 0.217578,-6.362031 z m 52.115171,0.834195 c 0.496225,0.346872 0.91144,0.822094 1.257184,1.317232 0.190892,0.586378 -0.315934,1.130112 -0.72411,1.480412 -0.997256,-0.610647 -1.044784,-1.811933 -0.533074,-2.797644 z m 2.925144,0.369456 c 0.351226,0.02577 0.715167,0.271859 0.803729,0.609653 -0.133681,0.48052 -0.452815,0.886683 -0.702779,1.310707 -0.72656,-0.308515 -1.152622,-1.620948 -0.249788,-1.917749 0.04884,-0.0059 0.09866,-0.0059 0.148838,-0.0025 z m 6.83765,0.02914 c 0.83716,0.234529 -0.342956,1.437288 -0.55874,1.965183 -0.391486,-0.315378 -0.765414,-0.737465 -0.969973,-1.180587 0.417203,-0.362872 0.975185,-0.65585 1.528713,-0.784596 z m -4.352032,0.838119 c 0.08672,-0.0042 0.200189,0.0051 0.345095,0.03394 1.153093,-0.08236 2.387683,0.41018 2.960393,1.454298 0.175904,0.656187 -0.558226,1.038376 -0.812444,1.564839 -0.690021,-0.720724 -1.569554,-1.34881 -1.864234,-2.345949 -0.524223,0.06349 -1.235701,-0.675218 -0.62881,-0.707133 z m 5.099223,0.01002 c 0.345255,0.264911 0.75365,0.789126 1.142281,1.131847 -0.308827,0.618503 -0.538135,1.27746 -0.846827,1.894692 -0.458793,-0.409843 -0.89912,-0.876375 -1.265873,-1.367277 0.247539,-0.585671 0.637265,-1.115957 0.970419,-1.659262 z m -6.318529,0.04219 c 0.416192,0.32502 0.856678,0.849816 1.248476,1.28546 -0.195651,0.519702 -0.473261,1.024583 -0.862043,1.423841 -0.477067,-0.173192 -0.814524,-0.635952 -1.07355,-1.050039 0.03688,-0.600558 0.408841,-1.148815 0.687117,-1.659262 z m -2.387717,0.773279 c 1.169303,0.10713 0.804781,1.695295 0.07966,2.051775 -0.998688,-0.356186 -0.757792,-1.511005 -0.07966,-2.051775 z m -2.688863,0.04312 c 0.428807,0.401565 0.831652,0.837656 1.219752,1.278058 -0.27686,0.478448 -0.867525,1.960291 -1.416446,0.977804 -0.282688,-0.748327 0.05928,-1.517901 0.196694,-2.255862 z m 6.62835,0.817227 c 0.539178,0.440722 0.982444,1.00049 1.52089,1.44821 -0.721566,0.198673 -1.470138,0.346257 -2.219308,0.316363 0.0608,-0.645004 0.42671,-1.193639 0.698418,-1.764573 z m 6.19625,0.08269 c 0.139988,0.692312 0.02164,1.825161 0.09442,2.669276 -0.35472,-0.29804 -0.657214,-0.726981 -0.790676,-1.173632 0.145158,-0.528829 0.421969,-1.023352 0.696253,-1.495644 z m -8.877265,0.347697 c 0.315866,0.547322 1.17401,0.886202 1.157101,1.542203 -0.722105,0.882119 -1.467065,1.858786 -2.470409,2.41644 -0.843947,-0.434558 -0.125168,-1.605031 0.385986,-2.036541 0.395157,-0.02821 0.637855,0.422541 0.951692,0.619227 0.497142,-0.759611 -0.962765,-0.880198 -0.563979,-1.560047 0.181992,-0.326948 0.363924,-0.653037 0.539609,-0.981282 z m 6.050897,0.05785 c 0.481471,0.315748 0.918876,0.869192 1.376423,1.291119 -0.252904,0.452006 -0.445379,1.060733 -0.831164,1.369012 -0.284069,-0.544012 -0.808545,-0.936576 -1.195399,-1.419924 0.123837,-0.447468 0.368244,-0.879955 0.65014,-1.240207 z m -8.413823,0.527415 c 1.324196,0.318106 0.56781,1.861042 0.129243,2.478232 -1.034594,-0.536105 -1.074661,-1.847022 -0.129243,-2.478232 z m -2.262397,1.160133 c 0.26433,0.110506 0.07326,0.587135 0.115323,0.844207 -0.121917,-0.220433 -0.06947,-0.568096 -0.115323,-0.844207 z m 12.412508,0.218453 c 1.269907,0.585713 1.087385,2.276444 1.086585,3.455599 -0.602638,-1.003521 -2.279348,-2.252848 -1.086585,-3.455599 z m -63.19433,0.45039 c 0.2093929,0.21794 -0.2055952,0.31291 0,0 z m 51.689581,0.217578 c 0.928265,0.0576 1.263423,1.325678 0.600079,1.915568 -0.195465,0.431644 -0.782196,0.252794 -0.8194,-0.167095 -0.0092,-0.540426 -0.271395,-1.35276 0.219321,-1.748473 z m 5.821565,0.806347 c 0.480612,0.07713 0.945771,0.301467 1.421238,0.428201 -1.607499,0.740286 -3.190662,1.864141 -3.814193,3.589195 -0.0784,0.320389 -0.660321,0.907566 -0.501302,0.184072 0.540493,-1.607044 1.341535,-3.36995 2.894257,-4.201468 z m -7.33374,0.604003 c 0.184257,0.3047 -0.211481,0.381751 0,0 z m 2.971265,0.0067 c 1.049239,0.08753 0.612946,1.480815 0.07705,1.884671 -0.952323,-0.178379 -0.603455,-1.405247 -0.07705,-1.884671 z m 12.269758,0.390769 c 0.485084,0.09559 0.354409,0.792184 0.452579,1.145776 0.02804,1.39627 0.191566,2.851057 -0.124039,4.212785 -0.335293,-1.654024 -0.07478,-3.59925 -0.32854,-5.358561 z m -4.411652,0.130549 c 0.478044,0.287101 1.099351,0.493445 1.241074,1.107485 0.178085,0.820369 -0.24972,1.592637 -0.637063,2.285892 0.237308,-1.166069 0.442062,-2.510796 -0.604011,-3.393377 z m 3.936464,0.107922 c 0.15507,0.177553 0.06636,0.842464 0.03267,1.166229 -0.09465,-0.387309 -0.105479,-0.775822 -0.03267,-1.166229 z m -4.937762,0.316792 c 0.611101,-0.0099 1.206607,0.385869 1.234994,1.031327 0.410264,1.861784 -1.413609,3.446143 -3.160574,3.427322 -0.597915,-6.65e-4 -1.096008,-0.648919 -0.894261,-1.227154 0.325002,-1.328592 0.902791,-3.172625 2.558323,-3.201904 0.08631,-0.01844 0.174227,-0.02821 0.261518,-0.02956 z m -2.292426,0.206269 c -0.882961,0.759889 -2.085939,2.307542 -1.305486,3.7019 0.289796,0.982478 -0.862842,-0.23404 -1.195374,-0.498253 0.41258,-1.2436 1.265158,-2.575695 2.50086,-3.203647 z m -6.890744,0.416883 c 0.118903,0.234866 0.01853,0.619152 0.04354,0.903389 -0.119576,-0.240727 -0.03848,-0.609695 -0.04354,-0.903389 z m 1.2885,0.407746 c 1.394031,0.246302 0.961906,2.402167 0.375537,3.22192 -1.160731,-0.565974 -1.286193,-2.369115 -0.375537,-3.22192 z M 1.1551438,43.190803 C 1.5155732,47.380784 1.5233457,51.919078 1.4123167,56.239936 1.1593795,51.980794 1.1425125,47.523855 1.1551438,43.190803 Z m 65.0093782,0.134902 c 0.185638,0.254689 -0.10068,1.025972 -0.369448,1.322015 -0.03562,-0.460233 0.09908,-0.948988 0.369448,-1.322015 z m 7.124001,0.12489 c 0.114523,0.627926 0.103981,1.715656 -0.0092,2.49216 -0.491163,1.133809 -1.193858,2.198028 -2.034377,3.105738 -0.516881,-0.03781 -0.810263,-0.799064 -0.303303,-1.097911 1.393584,-1.093726 2.165499,-2.760971 2.346817,-4.499987 z m 0.758929,0.554395 c 0.131787,0.277366 0.119155,0.888072 -0.03747,1.094863 -0.0076,-0.357028 -0.131096,-0.773582 0.03747,-1.094863 z M 7.4349289,44.03413 c 0.1828757,2.686177 0.3571621,5.637266 0.4368992,8.430354 0.051788,0.07031 -0.019284,0.801775 -0.1131342,0.375974 -0.3959486,-2.498779 -0.6834618,-5.029751 -0.7684956,-7.556547 0.5992701,0.0245 0.2910584,-0.873579 0.4447306,-1.249781 z m 2.0757154,0.409052 C 9.8866945,48.051602 10.214443,51.940041 10.459296,55.66595 9.221649,52.094358 9.442688,48.178273 9.5106443,44.443178 Z m 50.5211707,1.344204 c 0.303791,1.187761 0.217141,2.692526 0.245864,3.995645 -0.359402,-1.25208 -0.326274,-2.675617 -0.245864,-3.995645 z m 3.66623,0.06004 c 1.173227,0.649576 2.399085,1.408859 3.810243,1.318099 1.137068,-0.05187 2.143285,-0.635993 3.034379,-1.288946 -0.925047,1.410063 -3.198232,2.120261 -4.968211,1.828976 -0.938732,-0.123593 -1.741467,-0.932307 -1.876411,-1.858129 z m 10.409448,0.16797 c 0.456259,1.975887 0.209612,4.40532 0.115324,6.543063 -0.113918,0.722409 -0.33643,-0.165343 -0.283286,-0.366846 -0.05591,-2.053737 -0.196518,-4.160525 0.167962,-6.176217 z m -13.287157,0.493909 c 0.642604,0.01558 0.274023,0.950032 -0.0805,1.149691 -0.03191,-0.378189 -0.122094,-0.803678 0.0805,-1.149691 z m 12.506039,0.48259 c 0.03933,0.979506 0.40287,2.672426 -0.46692,3.552641 -0.52403,-0.03082 -0.863542,-0.659841 -1.30983,-0.942992 0.543987,-0.900678 1.1249,-1.784514 1.77675,-2.609649 z m -11.636157,0.243692 c 0.372573,0.558378 1.074198,1.026695 1.163182,1.714966 -0.427224,0.397186 -0.978521,-0.754517 -1.463006,-0.516973 0.08868,0.71589 1.354368,1.06704 0.878152,1.934287 -0.06231,0.597266 -0.531112,1.344246 -1.030906,0.556568 -0.759907,-1.135662 -0.188821,-2.618928 0.452578,-3.688848 z m 8.053058,1.433852 c 0.4811,0.07267 0.867457,0.560795 1.150128,0.93298 -0.352471,0.358687 -0.657399,0.756656 -1.010005,1.116623 -0.353895,-0.429127 -0.735629,-0.837656 -1.08224,-1.275019 0.28726,-0.28833 0.603371,-0.547566 0.942117,-0.774584 z m -5.955153,0.257173 c 0.540585,0.118734 1.583609,0.416698 1.223222,1.159703 -0.383756,1.152083 -1.736936,-0.05246 -1.848117,-0.774583 0.534884,0.173435 0.718021,1.068859 1.310251,1.061794 0.195533,-0.580164 -0.723839,-0.892813 -0.685356,-1.446914 z m 2.4495,0.530026 c 0.110246,0.0025 0.25879,0.02122 0.453446,0.05836 0.398458,0.06341 0.887668,-0.06391 1.233235,0.198429 0.03132,0.439847 -0.414121,1.260173 -0.910345,0.777632 C 66.579737,50.17686 65.46602,49.43772 66.237623,49.456684 Z m 2.241522,0.545688 c 0.695142,0.363115 1.408683,1.536014 0.457792,2.02263 -1.08139,-0.17384 -1.333072,-1.336516 -0.457792,-2.02263 z m 2.709739,0.03528 c 0.503466,0.289762 1.097717,0.694578 1.260652,1.290252 -0.100082,0.343209 -0.383191,1.088657 -0.833344,0.780672 -0.436133,-0.318738 -0.856157,-0.669904 -1.26195,-1.033062 0.176956,-0.40207 0.531407,-0.719697 0.834642,-1.037862 z m -13.267158,0.134902 c 0.37248,1.305519 -0.09284,3.184768 -0.326805,4.639234 0.146136,-1.531138 0.03166,-3.152565 0.326805,-4.639234 z m 4.957787,0.02526 c 0.513672,0.191802 0.959607,0.66502 1.258901,1.124453 -0.05255,0.50377 -0.424176,0.921756 -0.644457,1.36945 -0.412184,-0.240373 -0.796293,-0.56461 -1.071368,-0.948213 -0.06552,-0.543718 0.233123,-1.064278 0.456924,-1.54569 z m 2.710605,0.09138 c 0.551659,0.07427 0.958647,0.549629 1.323759,0.93298 -0.03099,0.420504 -0.400664,0.697028 -0.63969,1.016103 -0.6799,-0.198867 -1.708087,-1.378149 -0.684069,-1.949083 z m -4.496517,1.242817 c 0.740328,0.07537 0.498009,1.324264 0.102263,1.697122 -0.318831,-0.432537 -0.23026,-1.143257 -0.263261,-1.695817 0.05836,-0.0059 0.111643,-0.0059 0.160998,-0.0017 z m 3.485198,0.128805 c 0.430457,0.311724 0.914665,0.602715 1.235862,1.037425 0.138666,0.581569 -0.427578,1.018948 -0.729769,1.450382 -0.318333,-0.400327 -0.778693,-0.671563 -1.09834,-1.059175 0.0357,-0.527381 0.407148,-0.948331 0.592247,-1.428632 z m 8.380738,0.04008 c 0.599135,0.35888 0.250049,1.486676 0.395561,2.12619 -0.624693,-0.421994 -1.388953,-1.602219 -0.395561,-2.12619 z m -2.95908,0.01128 c 0.568416,0.09849 0.970192,0.624869 1.359875,1.019142 0.266175,0.46884 -0.382399,0.82804 -0.551793,1.219315 -0.657425,-0.478128 -2.020879,-1.52196 -0.808082,-2.238457 z m -2.515655,0.137074 c 1.083242,0.03259 1.252485,1.372406 0.592677,2.026976 -0.387898,-0.349727 -0.874902,-0.6142 -1.197985,-1.03046 -0.05591,-0.388412 0.180047,-0.926404 0.605308,-0.996516 z m -5.281981,0.587027 c 1.435823,0.289239 0.540762,1.902077 -0.04261,2.563965 -1.36876,-0.284827 -0.43658,-1.871283 0.04261,-2.563965 z M 74.198,53.081156 c 0.279463,0.40335 0.0981,1.03126 0.03091,1.490415 -0.625139,-0.109547 -0.227464,-1.085254 -0.03091,-1.490415 z m -7.90773,0.235851 c 0.752202,0.370989 1.577841,0.96178 1.689729,1.862053 0.675959,-0.0076 1.555492,0.499559 1.621848,1.22019 -1.527686,0.406534 -3.033764,-0.566403 -3.939073,-1.750653 -0.05642,-0.506767 0.290292,-0.995749 0.627496,-1.33159 z m 5.720194,0.02215 c 1.024507,0.287505 0.935861,1.446896 0.209747,2.059177 -0.330552,-0.283295 -0.746963,-0.543204 -0.916004,-0.956912 0.03958,-0.441464 0.346788,-0.861328 0.706257,-1.102265 z m -2.832455,0.03048 c 0.97351,0.221747 1.577723,1.458105 0.781539,2.248908 -0.368555,-0.288558 -0.730121,-0.58061 -1.106163,-0.859012 -0.525722,-0.32294 -0.239641,-1.281553 0.324624,-1.389896 z m -5.506944,0.521319 c 0.859095,-0.03773 1.239709,1.060724 0.701912,1.655346 -0.365508,0.853715 -1.82421,0.105943 -1.457794,-0.694948 0.166481,-0.363292 0.31558,-0.869352 0.755882,-0.960398 z M 1.9645395,54.515413 c 0.048504,0.120157 0.1638278,0.727982 -0.01221,0.831155 -0.00842,-0.277998 -0.015831,-0.555667 0.01221,-0.831155 z m 71.3339875,0.0357 c -0.09402,1.395117 0.336809,3.061747 -0.672751,4.234098 -0.11305,-0.642553 -0.168013,-1.349374 -0.456924,-1.970404 0.02552,-0.861512 0.750492,-1.525227 1.129675,-2.263694 z m -2.370749,0.536981 c 0.389061,0.09201 0.928442,0.657197 0.698864,1.070493 -0.370071,0.219245 -0.863045,0.44361 -1.291978,0.302435 -2.5e-5,-0.493168 0.230529,-1.040372 0.593114,-1.372928 z M 61.3164,55.18253 c 0.842195,0.01962 0.7858,0.990907 0.295033,1.442551 C 61.197001,56.30796 61.317023,55.639108 61.3164,55.18253 Z m 12.666195,0.08616 c 0.580332,0.04631 0.462558,1.236291 0.02265,1.508697 -0.156628,-0.47156 -0.269745,-1.0503 -0.02265,-1.508697 z m -8.65663,0.01911 c 0.486329,0.0224 1.03387,0.507188 1.069179,0.969965 -0.574606,0.02299 -1.241782,0.190252 -1.770224,-0.106608 0.179735,-0.305332 0.318275,-0.768883 0.701045,-0.863357 z m -2.59007,0.712354 c 0.296262,0.02804 0.465631,0.50947 0.06307,0.521756 -0.490456,0.202193 -0.572113,-0.373398 -0.191903,-0.504788 0.02299,-0.0084 0.04573,-0.01347 0.06787,-0.01608 0.02072,-0.0025 0.04118,-0.0025 0.06088,-8.42e-4 z M 10.09245,56.710342 c 0.374862,0.592054 0.622174,1.316239 0.57746,2.029148 -0.347596,-0.551271 -0.456579,-1.344625 -0.57746,-2.029148 z m 64.052474,0.885546 c 0.178353,0.756108 0.05667,2.292156 -0.414273,3.047431 -0.143819,-0.90232 -0.341869,-2.332181 0.414273,-3.047431 z m -3.50652,0.511314 c 0.395873,0.01735 0.09389,0.705828 0.150573,1.025677 -0.09144,0.506784 0.07646,1.3655 -0.523069,1.627061 -0.735806,0.08853 -1.556318,0.250343 -2.26153,-0.01608 0.03537,-0.770475 0.08462,-1.613487 0.278502,-2.362917 0.680944,-0.240854 1.433794,-0.184788 2.140119,-0.237165 0.0881,-0.02796 0.158842,-0.03907 0.215405,-0.03655 z m -4.802868,0.126195 c 0.190892,0.635884 -0.269905,1.787023 -0.215827,2.625319 -0.682779,0.381473 -1.493556,0.140031 -2.229758,0.232374 0.03461,-0.948652 -0.03933,-1.90292 0.0592,-2.848119 0.798945,-0.01575 1.595087,-0.0051 2.386411,-0.0096 z m -8.25888,0.203658 c 0.191027,0.03124 0.06939,0.383351 0.04177,0.556568 -0.244407,0.75317 -0.50569,1.682462 -0.845084,2.248907 0.08135,-0.823542 -0.13134,-2.245303 0.701045,-2.797643 0.04126,-0.01011 0.07495,-0.0123 0.102271,-0.0076 z m 4.084847,0.113143 c 0.123433,0.234057 0.04244,0.642359 0.04177,0.95735 -0.116132,-0.242942 -0.02897,-0.648667 -0.04177,-0.95735 z m 11.44555,0.3664 c 0.476284,1.167172 0.23581,3.041082 -1.174481,3.740198 -0.348843,0.385431 -0.601342,-0.212517 -0.186682,-0.427763 1.242008,-0.688379 0.335983,-2.483141 1.361163,-3.312435 z M 1.7256315,59.891362 c 0.1840883,0.121429 -0.018526,0.583321 0.059199,0.78111 -0.1467082,-0.202404 -0.05162,-0.529596 -0.059199,-0.78111 z M 3.51284,61.235566 c 0.1580763,0.123863 0.041852,0.493193 0.068293,0.70235 C 3.4209685,61.80933 3.5170504,61.45786 3.51284,61.235566 Z m 52.837091,0.578328 c 0.02787,0.620179 -1.058914,1.584611 -1.876419,1.716709 -2.538113,0.341693 -5.203709,0.54077 -7.71277,-0.05002 2.520909,-0.213603 5.190808,-0.593114 7.744988,-1.057878 0.603237,-0.204585 1.35399,-0.150009 1.844201,-0.608786 z m 17.210139,0.172324 c 0.455636,0.0084 0.155584,0.727941 0.07225,0.972584 -0.205982,1.112108 -1.445625,1.836243 -2.494333,1.595726 0.594167,-1.011833 1.482079,-1.878027 2.422099,-2.56831 z M 3.7343337,63.448356 c 0.1509354,0.778323 0.2923047,1.869211 0.1257571,2.714092 -0.1411672,-0.896896 -0.1480723,-1.80917 -0.1257571,-2.714092 z m 67.1899753,0.13577 c 0.07621,0.0092 -0.109244,0.306553 -0.171895,0.413834 -0.436512,0.856595 -1.489649,0.538245 -2.254995,0.60183 0.82334,-0.249796 1.703025,-0.486733 2.42689,-1.015664 z M 4.0959505,69.930057 c 0.9314813,0.785118 2.3675233,0.529537 3.4708321,0.708876 -1.0801851,0.221721 -2.2301791,0.185326 -3.3333195,0.115315 -0.2562635,-0.19389 -0.1749854,-0.545183 -0.1375126,-0.824191 z m 64.4736935,0.503921 c 0.246024,-0.0181 0.09485,0.239514 -0.13054,0.02695 0.05229,-0.016 0.09541,-0.02442 0.13054,-0.02695 z m -54.180857,0.687116 c 0.850076,8.42e-4 1.707294,0.04716 2.541329,0.02476 0.08844,0.0025 0.265788,0.0084 0.355529,0.0051 -1.76822,0.252861 -3.599141,0.312784 -5.396421,0.215405 0.806474,-0.202041 1.649477,-0.246023 2.499563,-0.244996 z m 4.251074,0.763266 c 0.14782,-0.0042 0.491509,0.0059 0.280238,0.08008 -3.06392,0.42639 -6.356718,0.950891 -9.3411363,0.183195 2.9967633,-0.19549 6.0013413,-0.287126 9.0060623,-0.256743 -0.02206,-0.0025 0.0059,-0.0051 0.05482,-0.0067 z"
       style="fill:#1a1a1a;stroke-width:0.0639519"
       id="path3857" />
    <g
       style="stroke:#000000;stroke-width:0.336127;stroke-miterlimit:4;stroke-dasharray:none;stroke-opacity:1"
       id="g3569"
       transform="matrix(0.02010409,0,0,-0.02010409,330.63475,181.9624)">
      <g
         id="g3567"
         clip-path="url(#clipPath4066)">
        <g
           id="g3565"
           transform="matrix(42.2002,0,0,89.2002,4893.9,2078.9)" />
      </g>
    </g>
  </g>
</svg>
